<mxfile host="app.diagrams.net" modified="2023-12-11T20:36:22.742Z" agent="Mozilla/5.0 (Windows NT 10.0; Win64; x64; rv:120.0) Gecko/20100101 Firefox/120.0" etag="uKYJWsn7GJbrzFG-GlZA" version="22.1.7" type="github">
  <diagram name="Страница — 1" id="0Fe31fzupErIYnQnvtf8">
    <mxGraphModel dx="1762" dy="785" grid="1" gridSize="10" guides="1" tooltips="1" connect="1" arrows="1" fold="1" page="1" pageScale="1" pageWidth="1169" pageHeight="827" math="0" shadow="0">
      <root>
        <mxCell id="0" />
        <mxCell id="1" parent="0" />
        <mxCell id="GLMFBdCi1oCmCL03dTun-25" value="" style="html=1;dropTarget=0;whiteSpace=wrap;fillColor=#d5e8d4;strokeColor=#82b366;" parent="1" vertex="1">
          <mxGeometry x="317.5" y="310" width="562.5" height="400" as="geometry" />
        </mxCell>
        <mxCell id="GLMFBdCi1oCmCL03dTun-1" value="&lt;div&gt;&lt;i&gt;Член команды&lt;/i&gt;&lt;br&gt;&lt;/div&gt;" style="shape=umlActor;verticalLabelPosition=bottom;verticalAlign=top;html=1;outlineConnect=0;" parent="1" vertex="1">
          <mxGeometry x="249" y="440" width="30" height="60" as="geometry" />
        </mxCell>
        <mxCell id="GLMFBdCi1oCmCL03dTun-5" value="&lt;div&gt;Менеджер&lt;/div&gt;&lt;div&gt;проекта&lt;/div&gt;" style="shape=umlActor;verticalLabelPosition=bottom;verticalAlign=top;html=1;outlineConnect=0;" parent="1" vertex="1">
          <mxGeometry x="249" y="553" width="30" height="60" as="geometry" />
        </mxCell>
        <mxCell id="GLMFBdCi1oCmCL03dTun-8" value="" style="endArrow=none;html=1;rounded=0;endFill=0;startArrow=block;startFill=0;" parent="1" target="GLMFBdCi1oCmCL03dTun-5" edge="1">
          <mxGeometry width="50" height="50" relative="1" as="geometry">
            <mxPoint x="264" y="520" as="sourcePoint" />
            <mxPoint x="319" y="586" as="targetPoint" />
          </mxGeometry>
        </mxCell>
        <mxCell id="GLMFBdCi1oCmCL03dTun-11" value="Управлять задачами" style="ellipse;whiteSpace=wrap;html=1;fillColor=#ffe6cc;strokeColor=#d79b00;" parent="1" vertex="1">
          <mxGeometry x="342.19" y="500.5" width="190" height="50" as="geometry" />
        </mxCell>
        <mxCell id="GLMFBdCi1oCmCL03dTun-13" value="&lt;div&gt;Получить информацию о проекте&lt;/div&gt;" style="ellipse;whiteSpace=wrap;html=1;fillColor=#ffe6cc;strokeColor=#d79b00;" parent="1" vertex="1">
          <mxGeometry x="512.5" y="440" width="180" height="60" as="geometry" />
        </mxCell>
        <mxCell id="GLMFBdCi1oCmCL03dTun-16" value="" style="endArrow=none;html=1;rounded=0;entryX=0;entryY=0.5;entryDx=0;entryDy=0;" parent="1" source="GLMFBdCi1oCmCL03dTun-5" target="GLMFBdCi1oCmCL03dTun-11" edge="1">
          <mxGeometry width="50" height="50" relative="1" as="geometry">
            <mxPoint x="280" y="563" as="sourcePoint" />
            <mxPoint x="520" y="383" as="targetPoint" />
          </mxGeometry>
        </mxCell>
        <mxCell id="GLMFBdCi1oCmCL03dTun-18" value="" style="endArrow=none;html=1;rounded=0;entryX=0.5;entryY=1;entryDx=0;entryDy=0;" parent="1" source="lGO7hTWIb2XyCQaGKHkS-3" target="GLMFBdCi1oCmCL03dTun-13" edge="1">
          <mxGeometry width="50" height="50" relative="1" as="geometry">
            <mxPoint x="470" y="460" as="sourcePoint" />
            <mxPoint x="520" y="410" as="targetPoint" />
          </mxGeometry>
        </mxCell>
        <mxCell id="GLMFBdCi1oCmCL03dTun-23" value="&lt;b&gt;Варианты использования&lt;/b&gt;" style="shape=umlFrame;whiteSpace=wrap;html=1;pointerEvents=0;width=210;height=20;" parent="1" vertex="1">
          <mxGeometry x="190" y="280" width="800" height="520" as="geometry" />
        </mxCell>
        <mxCell id="GLMFBdCi1oCmCL03dTun-27" value="&lt;div&gt;Управлять командой&amp;nbsp;&lt;/div&gt;&lt;div&gt;проекта&lt;/div&gt;" style="ellipse;whiteSpace=wrap;html=1;fillColor=#ffe6cc;strokeColor=#d79b00;" parent="1" vertex="1">
          <mxGeometry x="344.06" y="573" width="186.25" height="50" as="geometry" />
        </mxCell>
        <mxCell id="GLMFBdCi1oCmCL03dTun-28" value="" style="endArrow=none;html=1;rounded=0;entryX=0;entryY=0.5;entryDx=0;entryDy=0;" parent="1" source="GLMFBdCi1oCmCL03dTun-5" target="GLMFBdCi1oCmCL03dTun-27" edge="1">
          <mxGeometry width="50" height="50" relative="1" as="geometry">
            <mxPoint x="470" y="463" as="sourcePoint" />
            <mxPoint x="520" y="413" as="targetPoint" />
          </mxGeometry>
        </mxCell>
        <mxCell id="GLMFBdCi1oCmCL03dTun-29" value="Управлять пользователями" style="ellipse;whiteSpace=wrap;html=1;fillColor=#ffe6cc;strokeColor=#d79b00;" parent="1" vertex="1">
          <mxGeometry x="710" y="360" width="155" height="50" as="geometry" />
        </mxCell>
        <mxCell id="GLMFBdCi1oCmCL03dTun-30" value="" style="endArrow=none;html=1;rounded=0;exitX=1;exitY=0.5;exitDx=0;exitDy=0;" parent="1" source="GLMFBdCi1oCmCL03dTun-29" target="GLMFBdCi1oCmCL03dTun-49" edge="1">
          <mxGeometry width="50" height="50" relative="1" as="geometry">
            <mxPoint x="470" y="490" as="sourcePoint" />
            <mxPoint x="520" y="440" as="targetPoint" />
          </mxGeometry>
        </mxCell>
        <mxCell id="GLMFBdCi1oCmCL03dTun-32" value="" style="endArrow=none;html=1;rounded=0;entryX=1;entryY=0.5;entryDx=0;entryDy=0;" parent="1" source="GLMFBdCi1oCmCL03dTun-49" target="DlbZdIHzd7oVlVPWz-om-2" edge="1">
          <mxGeometry width="50" height="50" relative="1" as="geometry">
            <mxPoint x="470" y="490" as="sourcePoint" />
            <mxPoint x="870" y="705" as="targetPoint" />
          </mxGeometry>
        </mxCell>
        <mxCell id="GLMFBdCi1oCmCL03dTun-48" value="&lt;u&gt;&lt;b&gt;ThunderBoard&lt;br&gt;&lt;/b&gt;&lt;/u&gt;" style="text;html=1;strokeColor=none;fillColor=none;align=center;verticalAlign=middle;whiteSpace=wrap;rounded=0;" parent="1" vertex="1">
          <mxGeometry x="572.5" y="310" width="60" height="30" as="geometry" />
        </mxCell>
        <mxCell id="GLMFBdCi1oCmCL03dTun-49" value="&lt;div&gt;Администратор&lt;/div&gt;" style="shape=umlActor;verticalLabelPosition=bottom;verticalAlign=top;html=1;outlineConnect=0;" parent="1" vertex="1">
          <mxGeometry x="920" y="440.5" width="30" height="60" as="geometry" />
        </mxCell>
        <mxCell id="GLMFBdCi1oCmCL03dTun-60" value="Управлять своими проектами" style="ellipse;whiteSpace=wrap;html=1;fillColor=#ffe6cc;strokeColor=#d79b00;" parent="1" vertex="1">
          <mxGeometry x="357.19" y="653" width="167.81" height="50" as="geometry" />
        </mxCell>
        <mxCell id="GLMFBdCi1oCmCL03dTun-61" value="" style="endArrow=none;html=1;rounded=0;entryX=0;entryY=0.5;entryDx=0;entryDy=0;" parent="1" source="GLMFBdCi1oCmCL03dTun-5" target="GLMFBdCi1oCmCL03dTun-60" edge="1">
          <mxGeometry width="50" height="50" relative="1" as="geometry">
            <mxPoint x="540" y="543" as="sourcePoint" />
            <mxPoint x="590" y="493" as="targetPoint" />
          </mxGeometry>
        </mxCell>
        <mxCell id="GLMFBdCi1oCmCL03dTun-73" value="Управлять своими задачами" style="ellipse;whiteSpace=wrap;html=1;fillColor=#ffe6cc;strokeColor=#d79b00;" parent="1" vertex="1">
          <mxGeometry x="337.19" y="376" width="187.81" height="50" as="geometry" />
        </mxCell>
        <mxCell id="GLMFBdCi1oCmCL03dTun-74" value="" style="endArrow=none;html=1;rounded=0;entryX=0;entryY=0.5;entryDx=0;entryDy=0;" parent="1" source="GLMFBdCi1oCmCL03dTun-1" target="GLMFBdCi1oCmCL03dTun-73" edge="1">
          <mxGeometry width="50" height="50" relative="1" as="geometry">
            <mxPoint x="540" y="546" as="sourcePoint" />
            <mxPoint x="590" y="496" as="targetPoint" />
          </mxGeometry>
        </mxCell>
        <mxCell id="DlbZdIHzd7oVlVPWz-om-2" value="Управлять проектами" style="ellipse;whiteSpace=wrap;html=1;fillColor=#ffe6cc;strokeColor=#d79b00;" parent="1" vertex="1">
          <mxGeometry x="700" y="520" width="150" height="40" as="geometry" />
        </mxCell>
        <mxCell id="lGO7hTWIb2XyCQaGKHkS-3" value="&lt;div&gt;&lt;i&gt;Пользователь&lt;/i&gt;&lt;/div&gt;" style="shape=umlActor;verticalLabelPosition=bottom;verticalAlign=top;html=1;outlineConnect=0;" parent="1" vertex="1">
          <mxGeometry x="590" y="719" width="25" height="50" as="geometry" />
        </mxCell>
        <mxCell id="lGO7hTWIb2XyCQaGKHkS-6" value="" style="endArrow=none;html=1;rounded=0;endFill=0;startArrow=block;startFill=0;exitX=0.5;exitY=0.5;exitDx=0;exitDy=0;exitPerimeter=0;entryX=0.5;entryY=0.5;entryDx=0;entryDy=0;entryPerimeter=0;" parent="1" source="lGO7hTWIb2XyCQaGKHkS-3" target="GLMFBdCi1oCmCL03dTun-1" edge="1">
          <mxGeometry width="50" height="50" relative="1" as="geometry">
            <mxPoint x="225" y="450" as="sourcePoint" />
            <mxPoint x="225" y="380" as="targetPoint" />
            <Array as="points">
              <mxPoint x="200" y="744" />
              <mxPoint x="200" y="470" />
            </Array>
          </mxGeometry>
        </mxCell>
        <mxCell id="lGO7hTWIb2XyCQaGKHkS-7" value="" style="endArrow=none;html=1;rounded=0;endFill=0;startArrow=block;startFill=0;exitX=0.5;exitY=0.5;exitDx=0;exitDy=0;exitPerimeter=0;" parent="1" source="lGO7hTWIb2XyCQaGKHkS-3" edge="1">
          <mxGeometry width="50" height="50" relative="1" as="geometry">
            <mxPoint x="613" y="795" as="sourcePoint" />
            <mxPoint x="935" y="520" as="targetPoint" />
            <Array as="points">
              <mxPoint x="935" y="744" />
            </Array>
          </mxGeometry>
        </mxCell>
      </root>
    </mxGraphModel>
  </diagram>
</mxfile>
